<?xml version="1.0" standalone="no"?>
<!DOCTYPE svg PUBLIC "-//W3C//DTD SVG 20010904//EN"
 "http://www.w3.org/TR/2001/REC-SVG-20010904/DTD/svg10.dtd">
<svg version="1.0" xmlns="http://www.w3.org/2000/svg"
 width="1024.000000pt" height="1024.000000pt" viewBox="0 0 1024.000000 1024.000000"
 preserveAspectRatio="xMidYMid meet">
<metadata>
Created by potrace 1.11, written by Peter Selinger 2001-2013
</metadata>
<g transform="translate(0.000000,1024.000000) scale(0.100000,-0.100000)"
fill="#000000" stroke="none">
<path d="M7818 8561 c-45 -15 -208 -100 -288 -151 -12 -9 -150 -88 -275 -160
-16 -9 -68 -40 -115 -67 -47 -28 -143 -84 -215 -125 -71 -41 -182 -106 -245
-143 -63 -37 -140 -81 -170 -98 -30 -16 -62 -35 -70 -41 -8 -6 -35 -23 -60
-36 l-45 -24 -750 -2 c-742 -1 -751 -1 -835 -23 -121 -32 -219 -81 -430 -215
-404 -258 -422 -274 -466 -421 -17 -56 -18 -124 -18 -980 1 -1012 -1 -986 63
-1109 37 -72 153 -185 225 -219 182 -86 407 -73 561 33 78 54 153 143 187 225
41 97 42 110 44 760 1 347 3 635 3 641 1 9 337 12 1284 12 l1282 0 92 -23
c150 -38 238 -86 344 -187 115 -110 187 -233 226 -389 3 -13 8 -136 10 -274 3
-137 7 -252 8 -254 4 -3 146 77 665 377 157 91 310 179 340 195 115 64 179
118 221 186 75 125 81 298 14 431 -19 37 -203 360 -235 410 -5 8 -40 69 -77
135 -37 66 -72 128 -78 137 -10 17 -75 129 -106 183 -18 33 -237 412 -440 763
-71 123 -129 225 -129 228 0 9 -61 86 -89 113 -109 104 -301 154 -433 112z"/>
<path d="M3342 6842 c-23 -15 -131 -80 -240 -145 -633 -380 -623 -373 -706
-442 -127 -105 -230 -276 -267 -445 -19 -86 -21 -132 -22 -472 l-2 -377 -45
-29 c-25 -15 -70 -42 -100 -59 -30 -17 -113 -64 -185 -105 -71 -41 -269 -155
-440 -253 -170 -98 -326 -188 -345 -200 -101 -64 -171 -204 -173 -347 -2 -123
6 -145 158 -407 62 -108 122 -212 132 -231 19 -32 87 -151 231 -400 163 -282
245 -425 350 -607 65 -112 122 -211 127 -220 6 -10 24 -43 42 -73 17 -30 41
-73 53 -95 60 -109 131 -178 233 -225 156 -74 291 -60 469 47 43 26 144 85
213 123 26 15 191 112 297 175 18 10 61 35 95 55 35 19 210 120 389 225 l326
190 951 1 c524 0 981 4 1017 8 295 36 562 250 693 556 20 47 47 173 50 237 2
29 5 55 8 57 2 3 62 6 133 7 147 1 210 14 285 54 101 56 200 189 217 295 4 25
8 245 9 490 2 245 3 448 4 451 0 3 32 6 69 7 128 2 197 29 270 103 87 88 92
123 89 569 l-2 375 -27 58 c-43 91 -127 162 -218 183 -19 4 -506 8 -1082 8
l-1048 1 -1 -415 c0 -228 -2 -422 -3 -430 -2 -8 -6 -40 -10 -70 -35 -296 -266
-598 -559 -730 -249 -111 -553 -110 -810 4 -182 81 -369 262 -463 448 -41 82
-82 218 -91 307 -4 36 -7 450 -8 918 0 562 -3 853 -10 852 -5 0 -29 -13 -53
-27z"/>
</g>
</svg>
